<svg width="40" height="46" viewBox="0 0 40 46" fill="none" xmlns="http://www.w3.org/2000/svg">
<path d="M39.9933 22.9708C39.9933 26.6862 39.9899 30.405 40 34.1204C40 34.4 39.9258 34.5583 39.6762 34.7032C33.2198 38.4152 26.7701 42.1374 20.3205 45.8629C20.0742 46.0043 19.9022 45.9976 19.6559 45.8561C13.2265 42.1441 6.79373 38.4354 0.360938 34.7267C0.313712 34.6998 0.266487 34.6627 0.215888 34.6425C0.040479 34.5785 -0.0202395 34.4505 0.0067465 34.272C0.013493 34.2282 0.0067465 34.1811 0.0067465 34.1373C0.0067465 26.7031 0.0101198 19.2723 0 11.8381C0 11.5517 0.0910777 11.4002 0.333952 11.2621C6.79035 7.54665 13.24 3.82787 19.6897 0.0989854C19.9123 -0.0290161 20.0675 -0.035753 20.2935 0.0956169C26.76 3.83461 33.2299 7.56686 39.7065 11.289C39.9393 11.4237 40 11.5686 40 11.8212C39.9933 15.54 39.9933 19.2554 39.9933 22.9708Z" fill="#EA4959"/>
<path d="M10.3794 29.4956C10.5549 29.5563 10.6932 29.5361 10.8247 29.5361C11.6916 29.5394 12.5552 29.5327 13.4221 29.5428C13.6279 29.5462 13.7493 29.4788 13.8472 29.2969C14.1642 28.7276 14.4982 28.1685 14.8254 27.6059C14.8895 27.4948 14.9435 27.4005 15.0986 27.4038C15.9757 27.4106 16.8493 27.4072 17.7129 27.4072C17.7939 27.5285 17.7095 27.5992 17.669 27.6699C16.9134 29.0342 16.1511 30.395 15.3988 31.7626C15.3044 31.9344 15.1931 31.9917 15.0008 31.9917C12.1673 31.9849 9.33711 31.9883 6.50358 31.9883C6.43949 31.9883 6.37203 31.9816 6.31806 31.9748C6.30456 31.9513 6.29782 31.9411 6.29444 31.931C6.29107 31.9209 6.2877 31.9075 6.29107 31.9007C9.73179 25.504 13.1725 19.1107 16.6132 12.7173C16.6402 12.6702 16.6604 12.6163 16.7212 12.5927C16.8426 12.6533 16.8696 12.7813 16.9236 12.8858C18.0536 14.9911 19.1836 17.0997 20.3103 19.2084C22.1049 22.5634 23.9028 25.9183 25.6906 29.2767C25.8154 29.5091 25.9537 29.5866 26.2101 29.5832C27.2659 29.5664 28.3218 29.5765 29.3708 29.5765C29.3843 29.5529 29.3911 29.5428 29.3945 29.5361C29.3978 29.526 29.4046 29.5159 29.4046 29.5058C29.4012 29.4855 29.3945 29.462 29.3843 29.4417C29.3641 29.4013 29.3439 29.3609 29.3236 29.3205C26.4058 23.6783 23.4913 18.0328 20.5734 12.3906C20.5633 12.3704 20.5532 12.3502 20.5498 12.3266C20.5464 12.3165 20.5565 12.3064 20.5599 12.2862C20.6341 12.2256 20.7252 12.2559 20.8095 12.2559C21.5618 12.2525 22.3174 12.266 23.0696 12.2491C23.3226 12.2424 23.4407 12.3333 23.5554 12.5523C25.134 15.6277 26.7228 18.6964 28.3116 21.7684C30.0084 25.0493 31.7018 28.3302 33.3985 31.611C33.4525 31.7188 33.5267 31.8199 33.5402 31.9445C33.439 32.022 33.3344 31.9917 33.24 31.9917C30.4975 31.995 27.7551 31.9917 25.0126 31.9984C24.7799 31.9984 24.655 31.9277 24.5471 31.7188C23.4575 29.6674 22.3477 27.6261 21.2582 25.5714C21.1367 25.339 21.0018 25.2649 20.7421 25.2649C18.1447 25.275 15.5473 25.275 12.9532 25.2649C12.6901 25.2649 12.5552 25.3491 12.4371 25.5781C11.8131 26.784 11.1722 27.9832 10.538 29.1824C10.4806 29.2733 10.4368 29.3744 10.3794 29.4956ZM13.8438 23.0181C15.8644 23.0181 17.8107 23.0181 19.8212 23.0181C18.8193 21.1654 17.8377 19.3532 16.8325 17.4938C15.8239 19.3566 14.849 21.1587 13.8438 23.0181Z" fill="#FFFDFD"/>
<path d="M13.8438 23.0181C14.849 21.1587 15.8238 19.3566 16.8324 17.4938C17.8377 19.3532 18.8193 21.1655 19.8211 23.0181C17.8107 23.0181 15.8643 23.0181 13.8438 23.0181Z" fill="#EA4B5B"/>
</svg>
